<?xml version="1.0" encoding="UTF-8" standalone="no"?>
<svg
   xmlns:dc="http://purl.org/dc/elements/1.1/"
   xmlns:cc="http://creativecommons.org/ns#"
   xmlns:rdf="http://www.w3.org/1999/02/22-rdf-syntax-ns#"
   xmlns:svg="http://www.w3.org/2000/svg"
   xmlns="http://www.w3.org/2000/svg"
   xmlns:sodipodi="http://sodipodi.sourceforge.net/DTD/sodipodi-0.dtd"
   xmlns:inkscape="http://www.inkscape.org/namespaces/inkscape"
   width="10.784in"
   height="1.5848in"
   viewBox="0 -2 10.784 1.5848001"
   version="1.1"
   id="svg6"
   sodipodi:docname="back.svg"
   inkscape:version="0.92.3 (2405546, 2018-03-11)">
  <metadata
     id="metadata12">
    <rdf:RDF>
      <cc:Work
         rdf:about="">
        <dc:format>image/svg+xml</dc:format>
        <dc:type
           rdf:resource="http://purl.org/dc/dcmitype/StillImage" />
        <dc:title>OpenSCAD Model</dc:title>
      </cc:Work>
    </rdf:RDF>
  </metadata>
  <defs
     id="defs10" />
  <sodipodi:namedview
     pagecolor="#ffffff"
     bordercolor="#666666"
     borderopacity="1"
     objecttolerance="10"
     gridtolerance="10"
     guidetolerance="10"
     inkscape:pageopacity="0"
     inkscape:pageshadow="2"
     inkscape:window-width="2367"
     inkscape:window-height="1625"
     id="namedview8"
     showgrid="false"
     inkscape:document-units="in"
     units="in"
     scale-x="0.5"
     fit-margin-top="0"
     fit-margin-left="0"
     fit-margin-right="0"
     fit-margin-bottom="0"
     inkscape:zoom="1.4142136"
     inkscape:cx="302.53054"
     inkscape:cy="292.82513"
     inkscape:window-x="0"
     inkscape:window-y="0"
     inkscape:window-maximized="0"
     inkscape:current-layer="svg6"
     inkscape:showpageshadow="false" />
  <title
     id="title2">OpenSCAD Model</title>
  <path
     d="M 10.779,-1.995 H 0.749858 l -0.007996,0.02042 -0.014938,0.02499 -0.01915,0.02193 -0.022766,0.01814 -0.025635,0.0138 -0.027695,0.009 -0.028854,0.0039 L 0.573741,-1.88411 0.545359,-1.8906 0.51858,-1.90204 0.494288,-1.91808 0.473246,-1.93821 0.456126,-1.96175 0.441218,-1.995 H 0.005 v 1.5748 h 10.774 z m -6.16401,0.19 v -0.16 h 0.38 v 0.16 z m 5.98651,0.05211 -0.026,0.00351 -0.024,-0.01028 -0.0154,-0.0212 -0.0024,-0.02607 0.0114,-0.02359 0.0218,-0.01442 0.0262,-0.00118 0.023,0.01241 0.0135,0.02247 v 0.02619 l -0.0135,0.02247 z m -10.380313,0 -0.025956,0.00351 -0.024078,-0.01028 -0.015381,-0.0212 -0.00235,-0.02607 0.011353,-0.02359 0.021866,-0.01442 0.026153,-0.00118 0.023056,0.01241 0.013428,0.02247 v 0.02619 L 0.23585,-1.76258 Z M 8.09899,-0.4701878 V -1.8252 H 10.328 v 1.3550122 z M 0.221187,-1.359195 0.195231,-1.355671 0.171153,-1.36597 0.155772,-1.387149 0.153422,-1.413227 0.164775,-1.43682 0.186641,-1.45125 0.212794,-1.45243 0.23585,-1.44002 0.249278,-1.41753 v 0.026184 L 0.23585,-1.368869 Z m 10.380313,0 -0.026,0.00352 -0.024,-0.010299 -0.0154,-0.021179 -0.0024,-0.026078 0.0114,-0.023593 0.0218,-0.01443 0.0262,-0.00118 0.023,0.01241 0.0135,0.02249 v 0.026184 l -0.0135,0.022477 z M 7.44789,-0.82294 7.4084,-0.82471 7.36987,-0.833515 7.33352,-0.849048 7.30053,-0.870823 7.27197,-0.898136 7.24873,-0.930118 7.23158,-0.965717 7.22106,-1.003818 7.21752,-1.043186 l 0.00354,-0.039368 0.01052,-0.038101 0.01715,-0.035614 0.02324,-0.031982 0.02856,-0.027313 0.03299,-0.021775 0.03635,-0.015533 0.03853,-0.0088 0.03949,-0.00177 0.03917,0.00531 0.03758,0.012207 0.0348,0.018737 0.03092,0.024643 0.026,0.02977 0.02028,0.033921 0.01388,0.037017 0.00705,0.03888 v 0.039535 l -0.00705,0.038895 -0.01388,0.037003 -0.02028,0.03392 -0.026,0.02977 -0.03092,0.024643 -0.0348,0.018737 -0.03758,0.012207 z m -1.345,0 L 6.0634,-0.82471 6.02487,-0.833515 5.98852,-0.849048 5.95553,-0.870823 5.92697,-0.898136 5.90373,-0.930118 5.88658,-0.965717 5.87606,-1.003818 5.87252,-1.043186 l 0.00354,-0.039368 0.01052,-0.038101 0.01715,-0.035614 0.02324,-0.031982 0.02856,-0.027313 0.03299,-0.021775 0.03635,-0.015533 0.03853,-0.0088 0.03949,-0.00177 0.03916,0.00531 0.03759,0.012207 0.03482,0.018737 0.0309,0.024643 0.026,0.02977 0.02028,0.033921 0.01388,0.037017 0.00705,0.03888 v 0.039535 l -0.00705,0.038895 -0.01388,0.037003 -0.02028,0.03392 -0.026,0.02977 -0.0309,0.024643 -0.03482,0.018737 -0.03759,0.012207 z m -2.9,0 L 3.1634,-0.82471 3.12486,-0.833515 3.08851,-0.849048 3.05554,-0.870823 3.02696,-0.898136 3.00373,-0.930118 2.98658,-0.965717 2.97607,-1.003818 2.97251,-1.043186 l 0.00356,-0.039368 0.01051,-0.038101 0.01715,-0.035614 0.02323,-0.031982 0.02858,-0.027313 0.03297,-0.021775 0.03635,-0.015533 0.03854,-0.0088 0.03949,-0.00177 0.03916,0.00531 0.03759,0.012207 0.03481,0.018737 0.0309,0.024643 0.02601,0.02977 0.02027,0.033921 0.01388,0.037017 0.00707,0.03888 v 0.039535 l -0.00707,0.038895 -0.01388,0.037003 -0.02027,0.03392 -0.02601,0.02977 -0.0309,0.024643 -0.03481,0.018737 -0.03759,0.012207 z m -1.34401,0 L 1.81939,-0.82471 1.78086,-0.833515 1.74452,-0.849048 1.71153,-0.870823 1.68296,-0.898136 1.65972,-0.930118 1.64257,-0.965717 1.63206,-1.003818 1.62852,-1.043186 l 0.00354,-0.039368 0.01051,-0.038101 0.01715,-0.035614 0.02324,-0.031982 0.02857,-0.027313 0.03299,-0.021775 0.03634,-0.015533 0.03853,-0.0088 0.03949,-0.00177 0.03917,0.00531 0.0376,0.012207 0.0348,0.018737 0.0309,0.024643 0.026,0.02977 0.02028,0.033921 0.01389,0.037017 0.00706,0.03888 v 0.039535 l -0.00706,0.038895 -0.01389,0.037003 -0.02028,0.03392 -0.026,0.02977 -0.0309,0.024643 -0.0348,0.018737 -0.0376,0.012207 z M 4.94984,-0.874363 4.9185,-0.875782 4.88792,-0.882755 4.85906,-0.895084 4.83288,-0.912372 4.81021,-0.934055 4.79176,-0.95943 4.77815,-0.987705 4.7698,-1.017948 4.76699,-1.049198 4.7698,-1.080433 4.77815,-1.110675 4.79176,-1.13895 l 0.01845,-0.025375 0.02267,-0.021683 0.02618,-0.017288 0.02886,-0.012329 0.03058,-0.00699 0.03134,-0.0014 0.0311,0.00421 0.02983,0.00969 0.02763,0.014877 0.02452,0.019562 0.02065,0.023621 0.0161,0.026931 0.01101,0.029374 0.0056,0.030868 V -1.03351 L 5.11068,-1.002641 5.09967,-0.973268 5.08357,-0.946321 5.06292,-0.9227 5.0384,-0.903139 5.01077,-0.888277 4.98094,-0.878572 Z m -0.59,0 L 4.3285,-0.875782 4.29791,-0.882755 4.26907,-0.895084 4.24288,-0.912372 4.22021,-0.934055 4.20176,-0.95943 4.18815,-0.987705 4.1798,-1.017948 4.177,-1.049198 4.1798,-1.080433 4.18815,-1.110675 4.20176,-1.13895 l 0.01845,-0.025375 0.02267,-0.021683 0.02619,-0.017288 0.02884,-0.012329 0.03059,-0.00699 0.03134,-0.0014 0.0311,0.00421 0.02983,0.00969 0.02764,0.014877 0.02452,0.019562 0.02064,0.023621 0.0161,0.026931 0.01102,0.029374 0.0056,0.030868 V -1.03351 L 4.52069,-1.002641 4.50967,-0.973268 4.49357,-0.946321 4.47293,-0.9227 4.44841,-0.903139 4.42077,-0.888277 4.39094,-0.878572 Z M 0.221187,-0.965488 0.195231,-0.961979 0.171153,-0.972263 0.155772,-0.993457 l -0.00235,-0.026078 0.011353,-0.02359 0.021866,-0.014419 0.026153,-0.00117 0.023056,0.012405 0.013428,0.022476 v 0.026184 L 0.23585,-0.975177 Z m 10.380313,0 -0.026,0.003509 -0.024,-0.010284 -0.0154,-0.021194 -0.0024,-0.026078 0.0114,-0.02359 0.0218,-0.014419 0.0262,-0.00117 0.023,0.012405 0.0135,0.022476 v 0.026184 l -0.0135,0.022477 z M 0.221187,-0.571796 0.195231,-0.568271 0.171153,-0.578571 0.155772,-0.59975 0.153422,-0.625827 0.164775,-0.649418 0.186641,-0.663852 0.212794,-0.665027 0.23585,-0.652607 0.249278,-0.63013 v 0.026184 L 0.23585,-0.58147 Z m 10.380313,0 -0.026,0.003525 -0.024,-0.0103 -0.0154,-0.021179 -0.0024,-0.026077 0.0114,-0.023591 0.0218,-0.014434 0.0262,-0.001175 0.023,0.01242 0.0135,0.022477 v 0.026184 l -0.0135,0.022476 z"
     id="path4"
     style="fill:none;stroke:#000000;stroke-width:0.01;stroke-miterlimit:4;stroke-dasharray:none"
     inkscape:connector-curvature="0" />
</svg>
